<svg xmlns="http://www.w3.org/2000/svg" xmlns:xlink="http://www.w3.org/1999/xlink" width="1921px" height="1079px" viewBox="0 0 1921 1079"><title>hero-bg-light</title><defs><linearGradient x1="2.69012026%" y1="11.255383%" x2="96.2788314%" y2="74.7123043%" id="linearGradient-1"><stop stop-color="#4832FF" stop-opacity="0.563401442" offset="0%"></stop><stop stop-color="#0389FF" stop-opacity="0.769749781" offset="47.8420017%"></stop><stop stop-color="#0EBBFF" stop-opacity="0.57888986" offset="100%"></stop></linearGradient><filter x="-17.6%" y="-19.5%" width="135.1%" height="138.8%" filterUnits="objectBoundingBox" id="filter-2"><feGaussianBlur stdDeviation="50"></feGaussianBlur></filter><linearGradient x1="-5.5614567%" y1="33.8249065%" x2="86.2910895%" y2="78.1383788%" id="linearGradient-3"><stop stop-color="#FF1EA5" stop-opacity="0.439248252" offset="0%"></stop><stop stop-color="#F33BFF" stop-opacity="0.413051792" offset="45.0994318%"></stop><stop stop-color="#FFA722" stop-opacity="0.794935533" offset="100%"></stop></linearGradient><filter x="-17.5%" y="-19.3%" width="135.0%" height="138.6%" filterUnits="objectBoundingBox" id="filter-4"><feGaussianBlur stdDeviation="50"></feGaussianBlur></filter></defs><g id="Essentials" stroke="none" stroke-width="1" fill="none" fill-rule="evenodd" opacity="0.69812593"><g id="Main" transform="translate(0, -140)"><g id="hero-bg-light" transform="translate(-0, 291.4902)"><path d="M0,5.68434189e-14 C336.179716,318.165158 621.571312,576.928385 856.174791,776.28968 C632.629094,603.76776 347.237497,470.174482 0,375.509847 L0,5.68434189e-14 Z" id="Path-2" stroke="#979797" fill-opacity="0.5" fill="url(#linearGradient-1)" filter="url(#filter-2)"></path><path d="M1064,5.68434189e-14 C1400.17972,318.165158 1685.57131,576.928385 1920.17479,776.28968 C1696.62909,603.76776 1411.2375,470.174482 1064,375.509847 L1064,5.68434189e-14 Z" id="Path-2" fill="url(#linearGradient-3)" filter="url(#filter-4)" transform="translate(1492.0874, 388.1448) scale(-1, 1) translate(-1492.0874, -388.1448)"></path></g></g></g></svg>